G04 #@! TF.GenerationSoftware,KiCad,Pcbnew,7.0.6*
G04 #@! TF.CreationDate,2023-08-29T11:45:56+03:00*
G04 #@! TF.ProjectId,nrfmicro,6e72666d-6963-4726-9f2e-6b696361645f,rev?*
G04 #@! TF.SameCoordinates,Original*
G04 #@! TF.FileFunction,Paste,Top*
G04 #@! TF.FilePolarity,Positive*
%FSLAX46Y46*%
G04 Gerber Fmt 4.6, Leading zero omitted, Abs format (unit mm)*
G04 Created by KiCad (PCBNEW 7.0.6) date 2023-08-29 11:45:56*
%MOMM*%
%LPD*%
G01*
G04 APERTURE LIST*
G04 Aperture macros list*
%AMRoundRect*
0 Rectangle with rounded corners*
0 $1 Rounding radius*
0 $2 $3 $4 $5 $6 $7 $8 $9 X,Y pos of 4 corners*
0 Add a 4 corners polygon primitive as box body*
4,1,4,$2,$3,$4,$5,$6,$7,$8,$9,$2,$3,0*
0 Add four circle primitives for the rounded corners*
1,1,$1+$1,$2,$3*
1,1,$1+$1,$4,$5*
1,1,$1+$1,$6,$7*
1,1,$1+$1,$8,$9*
0 Add four rect primitives between the rounded corners*
20,1,$1+$1,$2,$3,$4,$5,0*
20,1,$1+$1,$4,$5,$6,$7,0*
20,1,$1+$1,$6,$7,$8,$9,0*
20,1,$1+$1,$8,$9,$2,$3,0*%
G04 Aperture macros list end*
%ADD10R,1.000000X0.650000*%
%ADD11R,0.650000X1.000000*%
%ADD12R,0.900000X0.800000*%
%ADD13R,0.600000X0.600000*%
%ADD14RoundRect,0.218750X-0.218750X-0.256250X0.218750X-0.256250X0.218750X0.256250X-0.218750X0.256250X0*%
%ADD15RoundRect,0.218750X0.256250X-0.218750X0.256250X0.218750X-0.256250X0.218750X-0.256250X-0.218750X0*%
%ADD16RoundRect,0.218750X-0.256250X0.218750X-0.256250X-0.218750X0.256250X-0.218750X0.256250X0.218750X0*%
%ADD17R,0.650000X1.060000*%
%ADD18RoundRect,0.218750X0.218750X0.256250X-0.218750X0.256250X-0.218750X-0.256250X0.218750X-0.256250X0*%
%ADD19R,1.000000X1.200000*%
%ADD20R,0.540000X0.800000*%
%ADD21R,0.300000X0.800000*%
%ADD22O,1.000000X2.200000*%
%ADD23O,1.000000X1.800000*%
G04 APERTURE END LIST*
D10*
X33839000Y-48000000D03*
X33839000Y-46730000D03*
X33839000Y-45460000D03*
X33839000Y-44190000D03*
X33839000Y-42920000D03*
X33839000Y-41650000D03*
X33839000Y-40380000D03*
X33839000Y-39110000D03*
X33839000Y-37840000D03*
X33839000Y-36570000D03*
D11*
X32190000Y-34351000D03*
X31553000Y-36062000D03*
X30920000Y-34351000D03*
X30283000Y-36062000D03*
X29650000Y-34351000D03*
X29013000Y-36062000D03*
X28380000Y-34351000D03*
X27743000Y-36062000D03*
X27110000Y-34351000D03*
X26473000Y-36062000D03*
X25840000Y-34351000D03*
X25203000Y-36062000D03*
X24570000Y-34351000D03*
X23933000Y-36062000D03*
X23300000Y-34351000D03*
D10*
X21601000Y-36570000D03*
X21601000Y-37840000D03*
X23312000Y-38602000D03*
X21601000Y-39110000D03*
X23312000Y-39872000D03*
X21601000Y-40380000D03*
X23312000Y-41142000D03*
X21601000Y-41650000D03*
X23312000Y-42412000D03*
X21601000Y-42920000D03*
X23312000Y-43682000D03*
X21601000Y-44190000D03*
X23312000Y-44952000D03*
X21601000Y-45460000D03*
X23312000Y-46222000D03*
X21601000Y-46730000D03*
X23312000Y-47492000D03*
X21601000Y-48000000D03*
D12*
X31766000Y-26434500D03*
X31766000Y-28334500D03*
X33766000Y-27384500D03*
D13*
X27721600Y-26402000D03*
X27721600Y-28602000D03*
D14*
X22550000Y-33000000D03*
X24125000Y-33000000D03*
X25387500Y-33000000D03*
X26962500Y-33000000D03*
D12*
X23669500Y-28334500D03*
X23669500Y-26434500D03*
X21669500Y-27384500D03*
D15*
X23300000Y-31387500D03*
X23300000Y-29812500D03*
D16*
X26197600Y-26594500D03*
X26197600Y-28169500D03*
X29245600Y-26594500D03*
X29245600Y-28169500D03*
D15*
X21700000Y-31387500D03*
X21700000Y-29812500D03*
D16*
X24927600Y-26594500D03*
X24927600Y-28169500D03*
D17*
X30576600Y-29457000D03*
X29626600Y-29457000D03*
X28676600Y-29457000D03*
X28676600Y-31657000D03*
X30576600Y-31657000D03*
D18*
X30062500Y-33000000D03*
X28487500Y-33000000D03*
D16*
X30550000Y-26594500D03*
X30550000Y-28169500D03*
D17*
X26766600Y-29457000D03*
X25816600Y-29457000D03*
X24866600Y-29457000D03*
X24866600Y-31657000D03*
X26766600Y-31657000D03*
D19*
X31800000Y-32850000D03*
X33400000Y-32850000D03*
D15*
X32150000Y-31387500D03*
X32150000Y-29812500D03*
X33725000Y-31387500D03*
X33725000Y-29812500D03*
D20*
X30921450Y-24498750D03*
X24521450Y-24498750D03*
X25321450Y-24498750D03*
X30121450Y-24498750D03*
D21*
X28971450Y-24498750D03*
X27971450Y-24498750D03*
X27471450Y-24498750D03*
X26471450Y-24498750D03*
X25971450Y-24498750D03*
X26971450Y-24498750D03*
X28471450Y-24498750D03*
X29479450Y-24498750D03*
D22*
X22146150Y-19798750D03*
X33296750Y-19798750D03*
D23*
X33297050Y-23598750D03*
X22146150Y-23598750D03*
M02*
